<svg width="24" height="24" viewBox="0 0 24 24" fill="none" xmlns="http://www.w3.org/2000/svg">
<path d="M16 8.4L7.12499 17.3C6.92499 17.5 6.68733 17.6 6.41199 17.6C6.13733 17.6 5.89999 17.5 5.69999 17.3C5.49999 17.1 5.39999 16.8623 5.39999 16.587C5.39999 16.3123 5.49999 16.075 5.69999 15.875L14.6 7H6.99999C6.71666 7 6.47899 6.90433 6.28699 6.713C6.09566 6.521 5.99999 6.28333 5.99999 6C5.99999 5.71667 6.09566 5.479 6.28699 5.287C6.47899 5.09567 6.71666 5 6.99999 5H17C17.2833 5 17.5207 5.09567 17.712 5.287C17.904 5.479 18 5.71667 18 6V16C18 16.2833 17.904 16.5207 17.712 16.712C17.5207 16.904 17.2833 17 17 17C16.7167 17 16.4793 16.904 16.288 16.712C16.096 16.5207 16 16.2833 16 16V8.4Z" fill="black"/>
</svg>
