<svg width="13" height="13" viewBox="0 0 13 13" fill="none" xmlns="http://www.w3.org/2000/svg">
<path d="M11 3.4L2.12502 12.3C1.92502 12.5 1.68736 12.6 1.41202 12.6C1.13736 12.6 0.900024 12.5 0.700024 12.3C0.500024 12.1 0.400024 11.8623 0.400024 11.587C0.400024 11.3123 0.500024 11.075 0.700024 10.875L9.60003 2H2.00002C1.71669 2 1.47902 1.90433 1.28702 1.713C1.09569 1.521 1.00002 1.28333 1.00002 1C1.00002 0.716667 1.09569 0.479 1.28702 0.287C1.47902 0.0956668 1.71669 0 2.00002 0H12C12.2834 0 12.5207 0.0956668 12.712 0.287C12.904 0.479 13 0.716667 13 1V11C13 11.2833 12.904 11.5207 12.712 11.712C12.5207 11.904 12.2834 12 12 12C11.7167 12 11.4794 11.904 11.288 11.712C11.096 11.5207 11 11.2833 11 11V3.4Z" fill="white"/>
</svg>
