<svg width="24" height="24" viewBox="0 0 24 24" fill="none" xmlns="http://www.w3.org/2000/svg">
<mask id="mask0_2_56" style="mask-type:luminance" maskUnits="userSpaceOnUse" x="1" y="1" width="22" height="22">
<path d="M22 12C22.0017 13.3172 21.7423 14.6216 21.2369 15.8379C20.7315 17.0543 19.9901 18.1584 19.0555 19.0865C18.1285 20.0118 17.0283 20.7454 15.8177 21.2454C14.607 21.7453 13.3098 22.0017 12 22C6.47699 22 1.99999 17.523 1.99999 12C1.9965 9.43589 2.98143 6.96909 4.74999 5.11251C5.68316 4.12781 6.80745 3.34388 8.05406 2.8087C9.30066 2.27352 10.6434 1.99834 12 2.00001C13.3098 1.99831 14.607 2.25475 15.8177 2.75466C17.0283 3.25458 18.1285 3.98817 19.0555 4.91351C19.9901 5.84162 20.7315 6.94575 21.2369 8.16208C21.7423 9.37842 22.0017 10.6829 22 12Z" fill="white" stroke="white" stroke-width="2" stroke-linecap="round" stroke-linejoin="round"/>
<path d="M22 12C20.541 12 16.516 11.45 12.9135 13.0315C8.99999 14.75 6.16649 17.4155 4.93149 19.0735" stroke="black" stroke-width="2" stroke-linecap="round" stroke-linejoin="round"/>
<path d="M8.25 2.72705C9.815 4.17155 13.23 7.84905 14.5 11.5001C15.77 15.1511 16.24 19.6401 16.53 20.9176" stroke="black" stroke-width="2" stroke-linecap="round" stroke-linejoin="round"/>
<path d="M2.077 10.75C3.966 10.864 8.9665 10.9665 12.1665 9.59999C15.3665 8.23349 18.12 5.71999 19.0645 4.92249" stroke="black" stroke-width="2" stroke-linecap="round" stroke-linejoin="round"/>
<path d="M2.74999 15.8065C3.63115 17.9395 5.22035 19.7036 7.24999 20.802M1.99999 12C1.9965 9.43589 2.98143 6.96909 4.74999 5.11251C5.68316 4.12781 6.80745 3.34388 8.05406 2.8087C9.30066 2.27352 10.6434 1.99834 12 2.00001M16 2.83201C17.1388 3.33028 18.1749 4.03613 19.0555 4.91351C19.9901 5.84162 20.7315 6.94574 21.2369 8.16208C21.7423 9.37842 22.0017 10.6829 22 12C22 13.231 21.7775 14.4105 21.37 15.5M12 22C13.3098 22.0017 14.607 21.7453 15.8177 21.2454C17.0283 20.7454 18.1285 20.0118 19.0555 19.0865" stroke="white" stroke-width="2" stroke-linecap="round" stroke-linejoin="round"/>
</mask>
<g mask="url(#mask0_2_56)">
<path d="M0 0H24V24H0V0Z" fill="#333333"/>
</g>
</svg>
