<svg width="24" height="24" viewBox="0 0 24 24" fill="none" xmlns="http://www.w3.org/2000/svg">
<path d="M20.9469 8.30496C20.9369 7.54758 20.7951 6.79773 20.5279 6.08896C20.2963 5.49111 19.9425 4.94816 19.4891 4.49479C19.0358 4.04142 18.4928 3.68761 17.8949 3.45596C17.1953 3.19331 16.4561 3.0513 15.7089 3.03596C14.7469 2.99296 14.4419 2.98096 11.9999 2.98096C9.55795 2.98096 9.24495 2.98096 8.28995 3.03596C7.54311 3.05141 6.8043 3.19343 6.10495 3.45596C5.50701 3.68745 4.96397 4.0412 4.51058 4.49459C4.05719 4.94798 3.70344 5.49102 3.47195 6.08896C3.20878 6.78809 3.06707 7.52707 3.05295 8.27396C3.00995 9.23696 2.99695 9.54196 2.99695 11.984C2.99695 14.426 2.99695 14.738 3.05295 15.694C3.06795 16.442 3.20895 17.18 3.47195 17.881C3.70383 18.4787 4.05784 19.0215 4.51138 19.4747C4.96492 19.9279 5.50801 20.2815 6.10595 20.513C6.80338 20.7862 7.54232 20.9383 8.29095 20.963C9.25395 21.006 9.55895 21.019 12.0009 21.019C14.4429 21.019 14.7559 21.019 15.7109 20.963C16.4581 20.9482 17.1973 20.8066 17.8969 20.544C18.4946 20.312 19.0375 19.9581 19.4908 19.5048C19.9441 19.0515 20.298 18.5086 20.5299 17.911C20.7929 17.211 20.9339 16.473 20.9489 15.724C20.9919 14.762 21.0049 14.457 21.0049 12.014C21.0029 9.57196 21.0029 9.26196 20.9469 8.30496ZM11.9939 16.602C9.43995 16.602 7.37095 14.533 7.37095 11.979C7.37095 9.42496 9.43995 7.35596 11.9939 7.35596C13.22 7.35596 14.3959 7.84302 15.2629 8.71C16.1299 9.57698 16.6169 10.7529 16.6169 11.979C16.6169 13.2051 16.1299 14.3809 15.2629 15.2479C14.3959 16.1149 13.22 16.602 11.9939 16.602ZM16.8009 8.26296C16.6593 8.26309 16.5191 8.2353 16.3883 8.18117C16.2574 8.12704 16.1385 8.04764 16.0384 7.94751C15.9383 7.84738 15.8589 7.72849 15.8047 7.59765C15.7506 7.4668 15.7228 7.32656 15.7229 7.18496C15.7229 7.04346 15.7508 6.90334 15.805 6.77262C15.8591 6.64189 15.9385 6.5231 16.0385 6.42305C16.1386 6.32299 16.2574 6.24363 16.3881 6.18948C16.5188 6.13533 16.6589 6.10746 16.8004 6.10746C16.9419 6.10746 17.0821 6.13533 17.2128 6.18948C17.3435 6.24363 17.4623 6.32299 17.5624 6.42305C17.6624 6.5231 17.7418 6.64189 17.7959 6.77262C17.8501 6.90334 17.8779 7.04346 17.8779 7.18496C17.8779 7.78096 17.3959 8.26296 16.8009 8.26296Z" fill="white"/>
<path d="M11.994 14.982C13.6525 14.982 14.997 13.6375 14.997 11.979C14.997 10.3204 13.6525 8.97595 11.994 8.97595C10.3355 8.97595 8.99097 10.3204 8.99097 11.979C8.99097 13.6375 10.3355 14.982 11.994 14.982Z" fill="white"/>
</svg>
