<svg width="17" height="17" viewBox="0 0 17 17" fill="none" xmlns="http://www.w3.org/2000/svg">
<path d="M6.3665 1.6785C5.78914 2.9318 5.60977 4.33193 5.85254 5.6903C6.09531 7.04866 6.74855 8.29999 7.72428 9.27572C8.70001 10.2514 9.95134 10.9047 11.3097 11.1475C12.6681 11.3902 14.0682 11.2109 15.3215 10.6335C14.576 13.9905 11.5813 16.5 8 16.5C3.85775 16.5 0.5 13.1423 0.5 9C0.5 5.41875 3.0095 2.424 6.3665 1.6785ZM12.623 1.71825L13.25 1.875V2.625L12.623 2.78175C12.3593 2.8477 12.1185 2.98407 11.9263 3.17627C11.7341 3.36848 11.5977 3.6093 11.5317 3.873L11.375 4.5H10.625L10.4683 3.873C10.4023 3.6093 10.2659 3.36848 10.0737 3.17627C9.88152 2.98407 9.6407 2.8477 9.377 2.78175L8.75 2.625V1.875L9.377 1.71825C9.64056 1.65218 9.88123 1.51576 10.0733 1.32356C10.2654 1.13137 10.4016 0.890607 10.4675 0.627L10.625 0H11.375L11.5317 0.627C11.5977 0.890699 11.7341 1.13152 11.9263 1.32373C12.1185 1.51594 12.3593 1.6523 12.623 1.71825ZM16.373 5.46825L17 5.625V6.375L16.373 6.53175C16.1093 6.5977 15.8685 6.73406 15.6763 6.92627C15.4841 7.11848 15.3477 7.3593 15.2817 7.623L15.125 8.25H14.375L14.2183 7.623C14.1523 7.3593 14.0159 7.11848 13.8237 6.92627C13.6315 6.73406 13.3907 6.5977 13.127 6.53175L12.5 6.375V5.625L13.127 5.46825C13.3907 5.4023 13.6315 5.26593 13.8237 5.07373C14.0159 4.88152 14.1523 4.6407 14.2183 4.377L14.375 3.75H15.125L15.2817 4.377C15.3477 4.6407 15.4841 4.88152 15.6763 5.07373C15.8685 5.26593 16.1093 5.4023 16.373 5.46825Z" fill="#F8F8F8"/>
</svg>
