<svg width="20" height="20" viewBox="0 0 20 20" fill="none" xmlns="http://www.w3.org/2000/svg">
<path d="M15.8438 10C15.8438 11.1558 15.501 12.2856 14.8589 13.2466C14.2168 14.2076 13.3041 14.9566 12.2363 15.3989C11.1685 15.8412 9.99352 15.9569 8.85994 15.7315C7.72636 15.506 6.68511 14.9494 5.86785 14.1322C5.05058 13.3149 4.49402 12.2736 4.26854 11.1401C4.04305 10.0065 4.15878 8.8315 4.60108 7.76369C5.04338 6.69589 5.79239 5.78322 6.75339 5.1411C7.71439 4.49898 8.84422 4.15625 10 4.15625C11.5492 4.15852 13.0342 4.77493 14.1296 5.87036C15.2251 6.96578 15.8415 8.45084 15.8438 10ZM10 2.78125C10.1823 2.78125 10.3572 2.70882 10.4861 2.57989C10.6151 2.45095 10.6875 2.27609 10.6875 2.09375V1.40625C10.6875 1.22391 10.6151 1.04905 10.4861 0.920114C10.3572 0.791183 10.1823 0.71875 10 0.71875C9.81766 0.71875 9.6428 0.791183 9.51386 0.920114C9.38493 1.04905 9.3125 1.22391 9.3125 1.40625V2.09375C9.3125 2.27609 9.38493 2.45095 9.51386 2.57989C9.6428 2.70882 9.81766 2.78125 10 2.78125ZM3.92422 4.89531C4.05418 5.02183 4.22839 5.09262 4.40977 5.09262C4.59114 5.09262 4.76535 5.02183 4.89531 4.89531C5.02388 4.76643 5.09609 4.59181 5.09609 4.40977C5.09609 4.22772 5.02388 4.0531 4.89531 3.92422L4.40547 3.43437C4.27469 3.31588 4.10335 3.25221 3.92692 3.25655C3.7505 3.2609 3.5825 3.33292 3.45771 3.45771C3.33292 3.5825 3.2609 3.7505 3.25655 3.92692C3.25221 4.10335 3.31588 4.27469 3.43437 4.40547L3.92422 4.89531ZM2.09375 9.3125H1.40625C1.22391 9.3125 1.04905 9.38493 0.920114 9.51386C0.791183 9.6428 0.71875 9.81766 0.71875 10C0.71875 10.1823 0.791183 10.3572 0.920114 10.4861C1.04905 10.6151 1.22391 10.6875 1.40625 10.6875H2.09375C2.27609 10.6875 2.45095 10.6151 2.57989 10.4861C2.70882 10.3572 2.78125 10.1823 2.78125 10C2.78125 9.81766 2.70882 9.6428 2.57989 9.51386C2.45095 9.38493 2.27609 9.3125 2.09375 9.3125ZM3.92422 15.1047L3.43437 15.5945C3.3058 15.7234 3.2336 15.898 3.2336 16.0801C3.2336 16.2621 3.3058 16.4367 3.43437 16.5656C3.56634 16.6918 3.74166 16.7625 3.92422 16.7633C4.10433 16.763 4.27714 16.692 4.40547 16.5656L4.89531 16.0758C5.01381 15.945 5.07748 15.7737 5.07313 15.5972C5.06879 15.4208 4.99677 15.2528 4.87198 15.128C4.74719 15.0032 4.57919 14.9312 4.40276 14.9269C4.22634 14.9225 4.055 14.9862 3.92422 15.1047ZM10 17.2188C9.81766 17.2188 9.6428 17.2912 9.51386 17.4201C9.38493 17.549 9.3125 17.7239 9.3125 17.9062V18.5938C9.3125 18.7761 9.38493 18.951 9.51386 19.0799C9.6428 19.2088 9.81766 19.2812 10 19.2812C10.1823 19.2812 10.3572 19.2088 10.4861 19.0799C10.6151 18.951 10.6875 18.7761 10.6875 18.5938V17.9062C10.6875 17.7239 10.6151 17.549 10.4861 17.4201C10.3572 17.2912 10.1823 17.2188 10 17.2188ZM16.0758 15.1047C15.945 14.9862 15.7737 14.9225 15.5972 14.9269C15.4208 14.9312 15.2528 15.0032 15.128 15.128C15.0032 15.2528 14.9312 15.4208 14.9269 15.5972C14.9225 15.7737 14.9862 15.945 15.1047 16.0758L15.5945 16.5656C15.7229 16.692 15.8957 16.763 16.0758 16.7633C16.2583 16.7625 16.4337 16.6918 16.5656 16.5656C16.6942 16.4367 16.7664 16.2621 16.7664 16.0801C16.7664 15.898 16.6942 15.7234 16.5656 15.5945L16.0758 15.1047ZM18.5938 9.3125H17.9062C17.7239 9.3125 17.549 9.38493 17.4201 9.51386C17.2912 9.6428 17.2188 9.81766 17.2188 10C17.2188 10.1823 17.2912 10.3572 17.4201 10.4861C17.549 10.6151 17.7239 10.6875 17.9062 10.6875H18.5938C18.7761 10.6875 18.951 10.6151 19.0799 10.4861C19.2088 10.3572 19.2812 10.1823 19.2812 10C19.2812 9.81766 19.2088 9.6428 19.0799 9.51386C18.951 9.38493 18.7761 9.3125 18.5938 9.3125ZM15.5945 5.09297C15.6839 5.09376 15.7725 5.07668 15.8551 5.04274C15.9378 5.00879 16.0128 4.95867 16.0758 4.89531L16.5656 4.40547C16.6346 4.34293 16.6902 4.26703 16.729 4.18236C16.7678 4.09769 16.789 4.00602 16.7913 3.91292C16.7936 3.81982 16.7769 3.72722 16.7424 3.64074C16.7078 3.55427 16.656 3.47572 16.5901 3.40986C16.5243 3.34401 16.4457 3.29222 16.3593 3.25764C16.2728 3.22306 16.1802 3.20641 16.0871 3.20871C15.994 3.211 15.9023 3.23218 15.8176 3.27098C15.733 3.30977 15.6571 3.36536 15.5945 3.43437L15.1047 3.92422C14.9761 4.0531 14.9039 4.22772 14.9039 4.40977C14.9039 4.59181 14.9761 4.76643 15.1047 4.89531C15.1687 4.95972 15.2451 5.01045 15.3293 5.04443C15.4135 5.0784 15.5038 5.09492 15.5945 5.09297Z" fill="#39403E"/>
</svg>
